<svg xmlns="http://www.w3.org/2000/svg" xmlns:xlink="http://www.w3.org/1999/xlink" viewBox="0 0 1915.998 251" xml:space="preserve">
    <g>
        <polygon fill="#ffff99" fill-opacity="0.2" points="483.647,0 0,0 0,138 520.7,138   " />
        <polygon fill="#ffff99" fill-opacity="0.3" points="444.216,0 0,0 0,178 492.008,178    " />
        <polygon fill="#ffff99" fill-opacity="0.4" points="409.658,47 0,47 0,87.998 0,137.999 0,177.999 0,250.999 420.757,250.999 464.431,250.999  " />
        <polygon fill="#ffff99" fill-opacity="0.5" points="376.991,87.998 0,87.998 0,250.999 420.757,250.999  " />
    </g>
    <g>
        <polygon fill="#ffff99" fill-opacity="0.2" points="1432.351,0 1915.998,0 1915.998,138 1395.299,138     " />
        <polygon fill="#ffff99" fill-opacity="0.3" points="1471.783,0 1915.998,0 1915.998,178 1423.99,178     " />
        <polygon fill="#ffff99" fill-opacity="0.4" points="1506.34,47 1915.998,47 1915.998,87.998 1915.998,137.999 1915.998,177.999 1915.998,250.999 1495.242,250.999
        1451.567,250.999    " />
        <polygon fill="#ffff99" fill-opacity="0.5" points="1539.007,87.998 1915.998,87.998 1915.998,250.999 1495.242,250.999  " />
    </g>
    <g>
        <polygon fill="#ffff99" fill-opacity="0.2" points="1274.394,0 1225.878,0 690.12,0 641.605,0 596.05,0 614.729,69.001 660.283,69.001 708.799,69.001 1207.2,69.001
        1255.715,69.001 1301.27,69.001 1319.948,0   " />
        <polygon fill="#ffff99" fill-opacity="0.3" points="1225.878,0 690.12,0 641.605,0 660.283,69.001 671.832,111.667 720.348,111.667 1195.65,111.667 1244.166,111.667
        1255.715,69.001 1274.394,0  " />
        <polygon fill="#ffff99" fill-opacity="0.4" points="658.375,204.002 671.097,251 1244.901,251 1257.624,204.002   " />
        <polygon fill="#ffff99" fill-opacity="0.3" points="690.12,0 708.799,69.001 720.348,111.667 731.041,151.167 1184.957,151.167 1195.65,111.667 1207.2,69.001
        1225.878,0  " />
    </g>
</svg>
