<svg xmlns="http://www.w3.org/2000/svg" viewBox="0 0 183.048 51.687"><path fill="#333333" d="M6.025 23.848c-.998 0-.704-1.07-.704-1.07s.94-8.832 1.717-9.418c.392-.296 3.48-.438 6.443-.505l-1.713-6.393c-2.098.11-3.923.247-4.3.405-.977.41-3.46 14.864-3.46 14.864l-.1.947h-.878l-.44-2.802s-.06-.784-.558-.784c-.5 0-1.804-.08-1.907.667-.103.748-.22 3.96 0 4.562.22.6.337.733 1.13.835.76.1 2.262.088 2.38.087l-.002.007c.282.188 1.796 1.184 2.964 1.542 1.29.396 2.904.528 3.256 1.115.352.587-.455 1.892-.455 1.892s-.66 1.172-.968 1.172c-.288 0-4.852-.725-5.425-.816l-.448 3.446s2.15.066 3.242.185c2.027.16 3.376.402 4.257.638.177.04.34.08.495.122l-.006-.006-.346-1.6c-.203-.94-.115-1.917.254-2.804.372-.894 1.124-1.32 3.934-1.204.518.02 1.872.034 3.41.04l-1.373-5.124h-10.4z"/><path fill="#333333" d="M10.035 0l1.73 6.46c3.203-.166 7.047-.27 7.39-.278.568.015 10.738.285 11.688.684.978.41 3.462 14.865 3.462 14.865l.1.947h.876l.44-2.802s.06-.784.558-.784 1.804-.08 1.907.667c.103.748.22 3.96 0 4.562-.22.6-.337.733-1.13.835-.76.1-2.262.088-2.38.087l.002.007c-.282.188-1.796 1.184-2.964 1.542-1.29.396-2.904.528-3.257 1.115-.352.587.455 1.892.455 1.892s.66 1.172.97 1.172c.287 0 4.85-.725 5.424-.816l.448 3.446s-2.15.066-3.242.185c-2.028.16-3.377.402-4.258.638-.177.04-.34.08-.495.122l.006-.006.346-1.602c.202-.94.114-1.916-.255-2.803-.372-.894-1.124-1.32-3.934-1.204-.815.035-3.7.048-6.124.04l2.49 9.297H23.6c2.76-.114 3.67-2.878 3.67-2.878l.028-.034c1.25-.277 3.91-.496 5.213-.638.988-.08 2.118-.14 3.457-.17 0 0 1.063 7.312-3.807 7.703-3.228.26-7.885.433-10.665.52l2.39 8.915h18.17V-.002h-32.02zm20.808 30.248c-.435 0-.788-.353-.788-.788 0-.435.353-.788.788-.788.435 0 .788.353.788.788 0 .435-.352.788-.787.788zm2.002-.54c-.72 0-1.304-.584-1.304-1.304 0-.72.585-1.304 1.305-1.304s1.304.584 1.304 1.304c0 .72-.584 1.304-1.305 1.304zm2.418 15.036c0 .538-.436.974-.974.974h-1.603c-.538 0-.974-.436-.974-.974v-1.677c.4-.026.784-.054 1.146-.083 1.17-.094 1.932-.58 2.403-1.234v2.994z"/><path fill="#333333" d="M19.156 23.848h13.13c1 0 .705-1.07.705-1.07s-.938-8.832-1.715-9.418c-.757-.57-11.55-.567-12.12-.567-.273 0-2.92 0-5.675.062l2.946 10.993h2.73z"/><circle fill="#333333" cx="31.841" cy="38.321" r="1"/><path fill="#333333" d="M72.03 12.774c0-5.722-4.985-8.494-10.194-8.494H50.893v27.734h6.756V21.23h.79l6.24 10.784h7.902l-6.795-11.3c3.738-1.067 6.242-3.974 6.242-7.94zm-10.193 3.32H57.65V9.416h4.187c2.008 0 3.32 1.39 3.32 3.378-.002 2.025-1.3 3.3-3.32 3.3zM84.712 23.018h-6.03v-3.87H84v-3.086h-5.317v-3.584h6.03V9.392h-10.09v16.712h10.09M92.26 15.588l6.79 10.516h4.06V9.392h-4.06v10.516L92.26 9.392h-4.058v16.712h4.06M110.065 26.104h4.06v-13.58h4.557V9.44h-13.15v3.085h4.533M149.482 31.014h33.566v1h-33.566zM145.984 32.014V4.28h-6.756v11.1h-10.706V4.28h-6.756v27.734h6.756V20.517h10.706v11.497M149.482 9.44h4.06v16.663h-4.06zM161.16 19.623h.476l3.75 6.48h4.75l-4.084-6.79c2.246-.64 3.75-2.388 3.75-4.77 0-3.438-2.995-5.104-6.124-5.104h-6.576v16.663h4.06v-6.48zm0-7.098h2.518c1.206 0 1.994.835 1.994 2.03 0 1.217-.78 1.982-1.994 1.982h-2.517v-4.012zM183.048 13.674v-3.086h-10.09V27.3h10.09v-3.086h-6.03v-3.87h5.318V17.26h-5.318v-3.586M54.338 45.905l-2.017-5.57h-1.164l2.57 6.592h1.236l2.583-6.593h-1.178M61.393 40.225c-2.014 0-3.236 1.437-3.236 3.4 0 1.938 1.186 3.41 3.194 3.41 1.368 0 2.517-.68 2.99-1.994h-1.176c-.327.747-1.023 1.094-1.813 1.094-1.273 0-2.016-.9-2.076-2.125h5.248c.032-.2.048-.418.048-.65 0-1.885-1.304-3.135-3.177-3.135zm-2.107 2.99c.075-1.21.83-2.09 2.083-2.09 1.226 0 2.043.88 2.058 2.09h-4.142zM83.566 38.04h1.092v8.886h-1.092zM89.264 40.225c-2.014 0-3.236 1.437-3.236 3.4 0 1.938 1.185 3.41 3.194 3.41 1.368 0 2.516-.68 2.99-1.994h-1.177c-.327.747-1.022 1.094-1.813 1.094-1.274 0-2.017-.9-2.077-2.125h5.248c.032-.2.048-.418.048-.65 0-1.885-1.303-3.135-3.176-3.135zm-2.107 2.99c.075-1.21.832-2.09 2.084-2.09 1.228 0 2.045.88 2.06 2.09h-4.143zM97.166 43.486c-.38-.1-.76-.19-1.14-.264-.576-.115-1.376-.374-1.376-1.08 0-.746.67-1.052 1.327-1.052.773 0 1.304.434 1.34 1.225h1.128c-.087-1.406-1.057-2.09-2.408-2.09-1.182 0-2.48.64-2.48 1.97 0 1.248.974 1.488 1.95 1.742.34.087.655.164.944.228.536.12 1.01.426 1.01 1.027 0 .73-.763.98-1.375.98-.774 0-1.363-.4-1.4-1.214h-1.128c.088 1.42 1.163 2.078 2.498 2.078 1.09 0 2.486-.526 2.486-1.808 0-.914-.5-1.512-1.374-1.742zM73.467 40.334h1.093v6.592h-1.093zM69.168 40.225c-.985 0-1.7.392-2.15 1.177V38.04h-1.093v8.886h1.093v-3.723c0-1.185.56-2.03 1.82-2.03s1.806.85 1.806 2.03v3.723h1.08v-3.903c.002-1.584-.895-2.798-2.556-2.798zM74.026 37.788c-.416 0-.74.33-.74.745 0 .417.313.745.734.745.42 0 .745-.325.745-.745 0-.415-.323-.745-.74-.745zM79.123 41.126c.85 0 1.538.398 1.813 1.225h1.177c-.428-1.453-1.507-2.125-2.99-2.125-2.004 0-3.194 1.468-3.194 3.405 0 1.937 1.19 3.405 3.193 3.405 1.445 0 2.557-.723 2.99-2.126h-1.177c-.272.816-.877 1.224-1.813 1.224-1.467 0-2.077-1.178-2.077-2.504s.61-2.504 2.077-2.504zM156.565 41.45v-1.116h-1.093v6.592h1.093v-3.602c0-1.22.41-1.957 1.718-1.957h.288v-1.14c-.944-.002-1.613.407-2.005 1.223zM145.187 43.486c-.38-.1-.76-.19-1.14-.264-.576-.115-1.376-.374-1.376-1.08 0-.746.67-1.052 1.328-1.052.773 0 1.304.434 1.34 1.225h1.128c-.087-1.406-1.057-2.09-2.408-2.09-1.182 0-2.48.64-2.48 1.97 0 1.248.974 1.488 1.95 1.742.34.087.656.164.944.228.535.12 1.01.426 1.01 1.027 0 .73-.764.98-1.376.98-.774 0-1.363-.4-1.4-1.214h-1.128c.088 1.42 1.163 2.078 2.498 2.078 1.09 0 2.486-.526 2.486-1.808 0-.914-.5-1.512-1.375-1.742zM150.94 40.225c-2.014 0-3.237 1.437-3.237 3.4 0 1.938 1.185 3.41 3.194 3.41 1.367 0 2.516-.68 2.99-1.994h-1.177c-.327.747-1.022 1.094-1.813 1.094-1.274 0-2.017-.9-2.077-2.125h5.247c.032-.2.048-.418.048-.65 0-1.885-1.303-3.135-3.176-3.135zm-2.108 2.99c.075-1.21.83-2.09 2.083-2.09 1.227 0 2.044.88 2.06 2.09h-4.143zM172.224 41.126c.85 0 1.538.398 1.813 1.225h1.177c-.428-1.453-1.507-2.125-2.99-2.125-2.003 0-3.194 1.468-3.194 3.405 0 1.937 1.19 3.405 3.194 3.405 1.445 0 2.557-.723 2.99-2.126h-1.177c-.272.816-.877 1.224-1.813 1.224-1.467 0-2.077-1.178-2.077-2.504s.61-2.504 2.077-2.504zM167.127 37.788c-.416 0-.74.33-.74.745 0 .417.313.745.734.745.42 0 .746-.325.746-.745 0-.415-.323-.745-.74-.745zM162.317 45.905l-2.017-5.57h-1.165l2.57 6.592h1.237l2.582-6.593h-1.178M166.568 40.334h1.092v6.592h-1.092zM179.47 40.225c-2.012 0-3.235 1.437-3.235 3.4 0 1.938 1.186 3.41 3.194 3.41 1.366 0 2.515-.68 2.99-1.994h-1.178c-.327.747-1.022 1.094-1.813 1.094-1.275 0-2.02-.9-2.078-2.125h5.248c.032-.2.048-.418.048-.65 0-1.885-1.304-3.135-3.177-3.135zm-2.106 2.99c.075-1.21.83-2.09 2.083-2.09 1.227 0 2.044.88 2.06 2.09h-4.143zM118.715 40.225c-.985 0-1.7.392-2.15 1.177v-1.068h-1.093v6.592h1.093v-3.723c0-1.185.56-2.03 1.82-2.03s1.806.85 1.806 2.03v3.723h1.082v-3.903c0-1.584-.897-2.798-2.557-2.798zM110.94 40.225c-2.014 0-3.237 1.437-3.237 3.4 0 1.938 1.186 3.41 3.194 3.41 1.367 0 2.516-.68 2.99-1.994h-1.177c-.327.747-1.022 1.094-1.813 1.094-1.274 0-2.017-.9-2.077-2.125h5.248c.032-.2.048-.418.048-.65 0-1.885-1.304-3.135-3.177-3.135zm-2.108 2.99c.075-1.21.83-2.09 2.083-2.09 1.227 0 2.044.88 2.06 2.09h-4.143zM104.81 41.45v-1.116h-1.094v6.592h1.093v-3.602c0-1.22.408-1.957 1.716-1.957h.288v-1.14c-.944-.002-1.613.407-2.005 1.223zM132.416 41.655c-.474-.93-1.395-1.43-2.426-1.43-1.948 0-3.146 1.49-3.146 3.37 0 1.86 1.198 3.44 3.146 3.44 1.04 0 1.956-.513 2.426-1.453v1.345h1.105v-6.592h-1.104v1.32zm-2.22 4.443c-1.39 0-2.235-1.198-2.235-2.51 0-1.332.844-2.414 2.228-2.414 1.39 0 2.228 1.14 2.228 2.462 0 1.318-.835 2.462-2.22 2.462zM135.322 38.04h1.093v8.886h-1.093zM124.36 45.234v-4.01h1.704v-.89h-1.705V38.7h-1.106v1.634h-.853v.888h.854v4.01c0 1.13.572 1.694 1.717 1.694h1.106v-.89h-.9c-.595.002-.817-.204-.817-.802zM74.623 31.014h44.058v1H74.624z"/><circle fill="#333333" cx="7.469" cy="29.46" r=".788"/><circle fill="#333333" cx="5.466" cy="28.404" r="1.304"/><path fill="#333333" d="M3.05 41.75v2.994c0 .538.435.974.973.974h1.602c.538 0 .974-.436.974-.974v-1.677c-.4-.026-.785-.054-1.147-.083-1.17-.093-1.933-.58-2.404-1.234z"/><path fill="#333333" d="M19.156 38.267H14.71c-2.76-.114-3.67-2.878-3.67-2.878l-.028-.034c-1.25-.277-3.91-.496-5.213-.638-.988-.08-2.118-.14-3.457-.17 0 0-1.063 7.312 3.807 7.703 4.78.385 12.712.58 13.005.587.095-.002 1.003-.025 2.34-.067l-1.207-4.504h-1.132zM6.47 39.32c-.552 0-1-.447-1-1 0-.55.448-1 1-1s1 .45 1 1c0 .554-.448 1-1 1z"/></svg>
